<?xml version="1.0" encoding="UTF-8" standalone="no"?>
<!-- Created with Inkscape (http://www.inkscape.org/) -->

<svg
   xmlns:dc="http://purl.org/dc/elements/1.1/"
   xmlns:cc="http://creativecommons.org/ns#"
   xmlns:rdf="http://www.w3.org/1999/02/22-rdf-syntax-ns#"
   xmlns:svg="http://www.w3.org/2000/svg"
   xmlns="http://www.w3.org/2000/svg"
   xmlns:sodipodi="http://sodipodi.sourceforge.net/DTD/sodipodi-0.dtd"
   xmlns:inkscape="http://www.inkscape.org/namespaces/inkscape"
   width="212.42262mm"
   height="201.83928mm"
   viewBox="0 0 212.42262 201.83928"
   version="1.1"
   id="svg8"
   inkscape:version="0.92.1 r15371"
   sodipodi:docname="spiral.svg">
  <defs
     id="defs2" />
  <sodipodi:namedview
     id="base"
     pagecolor="#ffffff"
     bordercolor="#666666"
     borderopacity="1.0"
     inkscape:pageopacity="0.0"
     inkscape:pageshadow="2"
     inkscape:zoom="0.35"
     inkscape:cx="400"
     inkscape:cy="202.85714"
     inkscape:document-units="mm"
     inkscape:current-layer="layer1"
     showgrid="false"
     fit-margin-top="0"
     fit-margin-left="0"
     fit-margin-right="0"
     fit-margin-bottom="0"
     inkscape:window-width="1920"
     inkscape:window-height="1017"
     inkscape:window-x="-8"
     inkscape:window-y="-8"
     inkscape:window-maximized="1" />
  <metadata
     id="metadata5">
    <rdf:RDF>
      <cc:Work
         rdf:about="">
        <dc:format>image/svg+xml</dc:format>
        <dc:type
           rdf:resource="http://purl.org/dc/dcmitype/StillImage" />
        <dc:title></dc:title>
      </cc:Work>
    </rdf:RDF>
  </metadata>
  <g
     inkscape:label="Layer 1"
     inkscape:groupmode="layer"
     id="layer1"
     transform="translate(0,-0.66667175)">
    <path
       sodipodi:type="spiral"
       style="fill:none;fill-rule:evenodd;stroke:#000000;stroke-width:0.26458332"
       id="path27"
       sodipodi:cx="99.785713"
       sodipodi:cy="101.96428"
       sodipodi:expansion="1"
       sodipodi:revolution="3"
       sodipodi:radius="97.892181"
       sodipodi:argument="-19.596722"
       sodipodi:t0="0"
       d="m 99.785713,101.96428 c 3.600717,-3.3354 6.272517,3.20812 5.543657,5.98462 -1.97518,7.52415 -11.741886,8.37226 -17.512899,5.10268 C 77.493481,107.20308 76.80066,93.01467 83.154756,84.010416 92.479648,70.79631 111.60105,70.267668 123.7242,79.78967 c 16.15825,12.69133 16.50551,36.8965 3.77977,52.09772 -16.01403,19.12917 -45.366224,19.28687 -63.625984,3.3388 C 41.76297,115.91095 41.798973,81.379233 60.980147,60.071931 83.584496,34.962013 123.3147,35.194009 147.66268,57.61506 c 28.11071,25.885992 27.68135,70.82673 2.0159,98.21081 C 120.51587,186.9414 70.356463,186.3138 39.939501,157.4008 5.8162673,124.96479 6.6426977,69.580943 38.805537,36.133446 74.512386,-0.99961528 135.1249,0.02605218 171.60117,35.440451"
       transform="matrix(1.3172949,0,0,1.1415048,-15.913309,-6.477144)" />
  </g>
</svg>
